# xmcd CD database file
#
# Track frame offsets:
#	150
#	10292
#	24985
#	39135
#	53777
#	67917
#	83680
#	97545
#	130957
#	143657
#
# Disc length: 2121 seconds
#
# Revision: 0
# Processed by: cddbd v1.4PL0 Copyright (c) Steve Scherf et al.
# Submitted via: CDex 1.50beta10
#
DISCID=6908470a
DTITLE=Benny Goodman - The Best Of Benny Goodman
DYEAR=1999
DGENRE=Jazz
TTITLE0=Let]s Dance
TTITLE1=Styompin' At The Savoy
TTITLE2=On A Slow Boat To China
TTITLE3=And The Angels Sing
TTITLE4=Jersey Bounce
TTITLE5=Jumpin' At The Woodside
TTITLE6=King Porter Stomp
TTITLE7=Sing, Sing, Sing
TTITLE8=For Every Man There Is A Woman
TTITLE9=Moonglow
EXTD=YEAR: 1999
EXTT0=
EXTT1=
EXTT2=
EXTT3=
EXTT4=
EXTT5=
EXTT6=
EXTT7=
EXTT8=
EXTT9=
PLAYORDER=
